<svg width="468" height="176" viewBox="0 0 468 176" fill="none" xmlns="http://www.w3.org/2000/svg">
<path d="M60.4095 28.6145C75.0908 28.6145 86.9923 22.3797 86.9923 14.6886C86.9923 6.99754 75.0908 0.762695 60.4095 0.762695C45.7282 0.762695 33.8267 6.99754 33.8267 14.6886C33.8267 22.3797 45.7282 28.6145 60.4095 28.6145Z" fill="#FFA665"/>
<path d="M372.639 143.276C363.372 143.276 354.405 141.554 347.334 138.416C340.262 135.279 335.543 130.929 334.017 126.14L333.985 126.039L334.11 125.961C336.188 124.655 337.934 123.214 339.305 121.673C337.79 122.539 336.074 123.302 334.196 123.944L333.57 124.162L333.534 123.769C333.502 123.429 333.486 123.091 333.486 122.766C333.483 120.85 333.988 118.944 334.985 117.102C339.531 108.732 340.308 99.7446 337.296 90.3886C336.781 88.7844 336.523 87.1605 336.523 85.5337C336.527 78.6591 341.203 72.0099 349.713 66.7766C358.222 61.5434 370.01 58.0678 382.965 56.9724C395.92 55.877 409.196 57.2331 420.417 60.7981C431.637 64.3631 440.069 69.904 444.202 76.4287L444.328 76.6276L443.957 76.7062C441.173 77.3234 438.222 77.7071 435.21 77.8431C438.393 78.2266 441.657 78.3909 444.921 78.3317L445.266 78.3254L445.35 78.5009C446.444 80.8012 446.997 83.163 446.996 85.5337L446.994 85.7904C446.984 87.6059 447.704 89.4021 449.108 91.062C450.512 92.7219 452.567 94.2082 455.141 95.4239C459.324 97.4175 462.632 99.862 464.839 102.589C467.046 105.317 468.099 108.262 467.925 111.223C467.751 114.184 466.355 117.09 463.833 119.741C461.311 122.392 457.722 124.726 453.314 126.581L453.11 126.668L452.871 126.611C447.829 125.412 444.156 124.107 441.47 122.548C443.261 124.548 445.672 126.379 448.605 127.965L448.984 128.17L448.513 128.314C442.527 130.143 435.721 131.105 428.791 131.104L428.594 131.104C428.524 131.103 428.454 131.103 428.384 131.103C417.784 131.103 407.737 133.251 400.788 137.005C397.13 138.979 392.755 140.551 387.921 141.628C383.087 142.705 377.892 143.265 372.639 143.276Z" fill="#F2F2F2"/>
<path d="M358.785 175.594C358.615 175.594 358.451 175.561 358.323 175.503C358.195 175.445 358.111 175.364 358.087 175.276C358.057 175.165 355.116 164.055 357.757 149.29C360.196 135.653 368.028 116.012 391.491 99.8807C391.548 99.842 391.618 99.8095 391.698 99.7851C391.778 99.7606 391.867 99.7447 391.959 99.7382C392.051 99.7317 392.144 99.7347 392.234 99.7472C392.324 99.7596 392.408 99.7812 392.482 99.8106C392.555 99.8401 392.617 99.8769 392.664 99.9189C392.711 99.9609 392.741 100.007 392.754 100.056C392.766 100.104 392.76 100.153 392.737 100.2C392.713 100.247 392.672 100.291 392.615 100.329C369.355 116.321 361.586 135.818 359.164 149.359C356.539 164.038 359.456 175.062 359.486 175.171C359.5 175.224 359.493 175.277 359.464 175.328C359.435 175.379 359.386 175.426 359.32 175.466C359.253 175.506 359.171 175.538 359.079 175.56C358.987 175.582 358.887 175.594 358.785 175.594Z" fill="#3F3D56"/>
<path d="M370.512 121.21C370.363 121.21 370.218 121.185 370.097 121.139C369.976 121.093 369.886 121.029 369.84 120.954C369.794 120.88 369.794 120.8 369.84 120.725C369.886 120.651 369.976 120.586 370.096 120.54C376.782 118.17 384.004 116.244 391.597 114.807C403.459 112.531 421.497 110.469 440.068 113.565C440.156 113.58 440.238 113.604 440.309 113.635C440.38 113.666 440.438 113.705 440.481 113.748C440.524 113.791 440.55 113.838 440.557 113.887C440.565 113.935 440.555 113.984 440.527 114.03C440.499 114.076 440.453 114.119 440.393 114.157C440.334 114.194 440.26 114.224 440.178 114.247C440.095 114.269 440.005 114.283 439.913 114.287C439.821 114.291 439.727 114.285 439.639 114.271C421.449 111.238 403.738 113.266 392.083 115.502C384.612 116.914 377.506 118.808 370.927 121.139C370.807 121.185 370.661 121.21 370.512 121.21Z" fill="#3F3D56"/>
<path d="M83.424 148.102C76.832 148.096 66.4537 148.374 60.8005 149.938C56.4564 151.14 52.5002 152.692 49.077 154.538C47.7576 155.253 46.5079 156.001 45.3327 156.782C42.0817 150.955 41.7033 144.792 44.2329 138.868C44.4108 138.47 44.3523 138.052 44.0653 137.671C43.7784 137.29 43.2765 136.964 42.6267 136.736C41.9769 136.509 41.2101 136.39 40.4285 136.397C39.6469 136.403 38.8876 136.535 38.2521 136.773C29.0683 140.281 23.1969 146.227 21.769 152.242C19.9496 159.906 24.2336 167.629 30.1877 174.697L30.1859 174.701C30.1748 174.732 30.1582 174.767 30.1418 174.802C30.1197 174.854 30.0922 174.905 30.0702 174.957C30.0315 175.047 29.9876 175.139 29.9489 175.229L30.913 175.206C30.9681 175.22 31.0233 175.232 31.0782 175.246H55.2251C55.5451 175.063 55.8432 174.871 56.1177 174.669C58.7897 172.75 59.8969 170.149 61.2468 167.803C62.2244 166.104 63.4474 164.446 64.905 162.844C68.5752 158.821 73.6395 155.189 79.8404 152.134C80.0387 152.036 80.2426 151.938 80.4465 151.843C81.4851 151.342 83.0949 150.673 84.6681 150.045C85.0119 149.908 85.2651 149.718 85.3921 149.502C85.5191 149.286 85.5136 149.054 85.3763 148.84C85.239 148.625 84.9768 148.439 84.6266 148.306C84.2764 148.174 83.8558 148.102 83.424 148.102Z" fill="#F2F2F2"/>
<path d="M246.459 28.829C247.027 29.661 246.949 30.5766 246.24 31.3784C245.531 32.1803 244.249 32.804 242.67 33.1152C242.321 33.1836 241.961 33.2356 241.594 33.2706L237.945 44.9761L229.385 40.8355L234.162 30.3546C233.986 29.4714 234.479 28.5873 235.537 27.8933C236.595 27.1993 238.131 26.7512 239.814 26.6459C241.23 26.5609 242.66 26.7307 243.867 27.1274C245.075 27.5241 245.989 28.1241 246.459 28.829L246.459 28.829Z" fill="#9E616A"/>
<path d="M183.287 55.3513C183.287 55.3513 189.931 50.7527 214.04 50.8786L227.724 48.274L230.852 33.2559L241.797 34.6211L240.234 53.189L216.778 60.2885L186.026 63.5652L183.287 55.3513Z" fill="#00BFA6"/>
<path d="M146.242 168.569L152.558 169.979L165.945 157.888L156.624 155.807L146.242 168.569Z" fill="#9E616A"/>
<path d="M198.43 171.699L205.295 171.699L208.561 157.827L198.429 157.827L198.43 171.699Z" fill="#9E616A"/>
<path d="M198.188 175.45L219.299 175.45V175.31C219.299 174.169 218.433 173.074 216.892 172.267C215.351 171.459 213.261 171.006 211.082 171.006H211.082L207.226 169.473L200.031 171.006L198.188 171.006L198.188 175.45Z" fill="#2F2E41"/>
<path d="M142.401 170.971L161.822 175.306L161.927 175.178C162.781 174.127 162.804 172.942 161.991 171.883C161.177 170.824 159.594 169.978 157.589 169.53L157.589 169.53L155.189 167.328L147.423 167.26L145.727 166.882L142.401 170.971Z" fill="#2F2E41"/>
<path d="M205.165 89.6015L215.598 122.883L212.759 127.842L216.484 131.355L211.013 162.202L213.234 164.764L207.028 166.769H194.401L193.731 138.842L190.612 134.742V132.482L184.262 115.454L183.093 134.933L181.246 139.039L182.797 141.963L180.77 144.012L163.397 163.554H149.237L150.332 159.135C147.796 158.462 154.141 156.495 154.751 155.04L152.666 152.583L154.751 147.941L156.663 138.87L154.647 119.724L155.595 93.9411L172.159 87.3057L205.165 89.6015Z" fill="#2F2E41"/>
<path d="M179.757 45.7725C187.66 45.7725 194.066 42.4164 194.066 38.2764C194.066 34.1364 187.66 30.7803 179.757 30.7803C171.854 30.7803 165.448 34.1364 165.448 38.2764C165.448 42.4164 171.854 45.7725 179.757 45.7725Z" fill="#9E616A"/>
<path d="M154.894 103.407C155.295 103.03 155.534 102.612 155.593 102.182C155.652 101.752 155.531 101.32 155.237 100.917C154.944 100.514 154.485 100.15 153.893 99.85C153.302 99.5501 152.592 99.3217 151.814 99.181L151.78 88.6982L143.109 91.7048L144.47 101.199C144.106 101.899 144.245 102.645 144.86 103.296C145.476 103.946 146.525 104.456 147.81 104.728C149.095 105 150.526 105.016 151.832 104.773C153.137 104.529 154.227 104.043 154.894 103.407Z" fill="#9E616A"/>
<path d="M154.092 57.0234L150.218 55.0674L147.373 56.1434C147.373 56.1434 144.573 57.9035 142.333 63.1838C140.093 68.4641 142.333 97.5057 142.333 97.5057L154.652 96.6256L152.972 81.3714L158.012 68.464L154.092 57.0234Z" fill="#00BFA6"/>
<path d="M148.37 55.5445L161.421 52.2786L170.282 47.973L186.441 47.9097L191.653 51.4594L205.413 53.9081L203.12 78.7651L204.684 80.6765C204.684 80.6765 203.594 81.1921 203.097 81.4804C202.599 81.7688 203.784 84.1827 203.784 84.1827L204.453 86.809L202.599 87.503L205.009 88.9944L205.607 91.3454C205.607 91.3454 163.536 85.8673 155.587 94.9422C155.167 95.4216 156.201 90.7357 156.201 90.7357L157.235 87.3053L156.209 84.2263L154.645 83.4071L157.268 82.0332L155.587 75.5143L148.37 55.5445Z" fill="#00BFA6"/>
<path d="M284.599 168.421H276.854L273.168 152.771H284.599V168.421Z" fill="#FFB6B6"/>
<path d="M288.687 175.452H283.133L282.142 172.704L279.603 175.452H264.872C264.166 175.452 263.478 175.333 262.909 175.114C262.34 174.895 261.92 174.586 261.71 174.233C261.5 173.88 261.511 173.501 261.741 173.151C261.971 172.801 262.409 172.499 262.99 172.289L274.754 168.033V165.256L287.127 165.643L288.687 175.452Z" fill="#2F2E41"/>
<path d="M359.918 160.371L353.256 162.441L334.848 149.965L344.68 146.911L359.918 160.371Z" fill="#FFB6B6"/>
<path d="M370.28 165.324L365.503 166.808L361.976 164.71L362.467 167.752L349.796 171.688C349.189 171.877 348.482 171.959 347.78 171.922C347.077 171.886 346.415 171.732 345.89 171.485C345.366 171.237 345.006 170.908 344.863 170.546C344.721 170.184 344.803 169.807 345.099 169.471L351.073 162.667L348.368 160.278L359.388 157.304L370.28 165.324Z" fill="#2F2E41"/>
<path d="M281.141 68.3584L277.378 80.9278L313.133 81.1741L308.428 69.0978L281.141 68.3584Z" fill="#FFB6B6"/>
<path d="M277.243 80.7679L267.031 93.7426L266.287 128.44L275.001 161.569H284.646L288.597 128.98L298.316 106.682L307.901 130.004L337.706 152.831H352.351L325.426 127.676L322.309 100.274C322.309 100.274 324.252 88.649 314.312 81.7893L311.892 78.1274L277.243 80.7679Z" fill="#2F2E41"/>
<path d="M327.262 90.2409C326.266 90.0988 325.342 89.8441 324.555 89.4946C323.768 89.1452 323.136 88.7096 322.705 88.2185C322.274 87.7274 322.054 87.1928 322.06 86.6522C322.065 86.1117 322.298 85.5784 322.74 85.0899L307.529 59.1111L318.717 57.9492L332.629 83.414C334.146 83.8573 335.3 84.5768 335.872 85.4361C336.444 86.2953 336.395 87.2347 335.733 88.0763C335.072 88.9178 333.844 89.6029 332.283 90.0019C330.721 90.4009 328.935 90.4859 327.262 90.241V90.2409Z" fill="#FFB6B6"/>
<path d="M309.217 77.4843L282.486 70.9547C281.781 70.9469 281.101 70.8183 280.55 70.5886C279.998 70.3589 279.605 70.0409 279.432 69.6831C278.11 66.9426 275.203 63.8963 276.745 56.7828C277.05 55.4047 277.878 54.0727 279.183 52.8654C280.487 51.6581 282.24 50.6001 284.339 49.754C286.437 48.9079 288.838 48.2909 291.4 47.9394C293.962 47.588 296.632 47.5093 299.253 47.708C302.017 47.9154 304.667 48.4266 307.028 49.2082C309.389 49.9897 311.408 51.0239 312.952 52.243C314.496 53.462 315.531 54.8384 315.989 56.2817C316.446 57.725 316.316 59.2026 315.607 60.6177C312.504 66.7898 312.837 73.3898 312.483 75.9266C312.431 76.2933 312.151 76.6411 311.686 76.9166C311.221 77.1921 310.596 77.3804 309.908 77.4525C309.703 77.4738 309.495 77.4846 309.286 77.4847C309.263 77.4847 309.24 77.4845 309.217 77.4843Z" fill="#00BFA6"/>
<path d="M251.662 33.8531C251.513 34.0269 251.339 34.1944 251.14 34.3539L263.922 50.0549L271.779 50.5598L271.874 56.8711L257.8 56.6853C256.663 56.6703 255.566 56.4625 254.673 56.093C253.781 55.7236 253.141 55.2125 252.851 54.6364L243.377 35.8618C242.034 35.6521 240.846 35.2333 239.969 34.6611C239.093 34.0889 238.569 33.3905 238.469 32.6587C238.368 31.9269 238.696 31.1964 239.407 30.5644C240.118 29.9324 241.18 29.4289 242.451 29.1207C243.722 28.8126 245.142 28.7145 246.522 28.8394C247.902 28.9643 249.177 29.3064 250.177 29.8202C251.177 30.3339 251.855 30.9949 252.12 31.7153C252.385 32.4358 252.225 33.1814 251.662 33.8531V33.8531Z" fill="#FFB6B6"/>
<path d="M265.21 49.4952C265.528 49.3475 265.903 49.2376 266.309 49.1729C266.716 49.1081 267.144 49.0901 267.565 49.12L282.27 50.1628C284.444 50.148 286.54 50.5854 288.099 51.379C289.658 52.1727 290.552 53.2578 290.587 54.3965C290.621 55.5351 289.791 56.6344 288.281 57.4533C286.77 58.2721 284.701 58.7437 282.528 58.7647L267.83 60.0059C267.411 60.0413 266.982 60.0289 266.572 59.9696C266.163 59.9103 265.782 59.8055 265.457 59.6622C265.132 59.519 264.87 59.3407 264.688 59.1396C264.506 58.9384 264.409 58.7191 264.404 58.4965L264.213 50.6746C264.208 50.452 264.294 50.2314 264.466 50.0279C264.638 49.8243 264.891 49.6426 265.21 49.4952Z" fill="#00BFA6"/>
<path d="M306.847 65.6928C306.471 65.5892 306.142 65.4443 305.883 65.268C305.623 65.0917 305.44 64.8882 305.344 64.6713L302.004 57.0972C301.209 56.0374 301.249 54.8557 302.115 53.8112C302.98 52.7667 304.601 51.9446 306.622 51.5251C308.642 51.1057 310.898 51.1231 312.895 51.5735C314.891 52.024 316.465 52.8707 317.271 53.9281L324.687 60.6906C324.898 60.8836 325.028 61.0982 325.067 61.3198C325.106 61.5415 325.053 61.7649 324.912 61.9749C324.772 62.1849 324.546 62.3766 324.251 62.5368C323.957 62.6971 323.599 62.8222 323.204 62.9035L309.306 65.7639C308.91 65.8454 308.486 65.8812 308.062 65.8689C307.637 65.8567 307.223 65.7966 306.847 65.6928Z" fill="#00BFA6"/>
<path d="M306.254 45.0371C313.58 42.9391 316.273 38.1271 312.268 34.2892C308.263 30.4512 299.078 29.0407 291.752 31.1387C284.425 33.2367 281.733 38.0488 285.738 41.8867C289.743 45.7246 298.928 47.1351 306.254 45.0371Z" fill="#FFB6B6"/>
<path d="M288.606 34.9039C285.363 34.8943 282.119 34.8848 278.876 34.8752C278.645 33.7171 279.629 32.565 281.062 31.6752C282.496 30.7855 284.352 30.1155 286.185 29.4567C288.046 28.7878 289.973 28.1038 292.185 27.87C294.039 27.6741 295.955 27.81 297.828 27.9464C300.312 28.1274 302.795 28.3083 305.279 28.4893C308.005 28.6879 310.858 28.9125 313.072 29.7691C316.067 30.9275 315.302 33.6013 318.175 34.841C326.853 38.5853 323.339 41.8551 323.501 45.268C313.014 45.8443 302.527 46.4205 292.04 46.9968C290.902 47.0995 289.736 47.0817 288.611 46.9446C287.51 46.7682 286.5 46.2906 286.419 45.6888C286.328 45.0166 287.346 44.4664 288.173 43.9502C290.145 42.6702 291.328 41.1068 291.567 39.4668C291.806 37.8268 291.089 36.1874 289.51 34.7656L288.606 34.9039Z" fill="#2F2E41"/>
<path d="M176.095 45.4041C176.033 45.3336 175.972 45.2629 175.912 45.1919C175.935 45.1923 175.958 45.194 175.982 45.1944L176.095 45.4041Z" fill="#2F2E41"/>
<path d="M165.047 31.1205C165.726 30.7847 166.609 30.5847 167.542 30.5555C168.467 30.5711 169.405 31.0089 169.213 31.4834C170.913 29.9069 173.618 28.6944 176.854 28.0588C180.09 27.4231 183.65 27.4048 186.909 28.0072C189.209 28.4323 191.464 29.2826 191.993 30.5298C192.044 30.8573 192.23 31.175 192.539 31.461C192.806 31.6139 193.153 31.7226 193.537 31.7735C193.921 31.8244 194.324 31.8154 194.699 31.7476L194.721 31.7441C194.849 31.7212 194.988 31.719 195.118 31.7377C195.249 31.7564 195.365 31.7952 195.453 31.849C195.541 31.9028 195.596 31.9693 195.612 32.0397C195.627 32.1102 195.601 32.1814 195.538 32.2441L194.888 32.8799C195.708 32.9756 196.56 32.9661 197.372 32.8522C197.507 32.8337 197.649 32.8374 197.78 32.863C197.91 32.8886 198.023 32.9347 198.101 32.995C198.18 33.0553 198.221 33.1269 198.219 33.1999C198.216 33.273 198.171 33.3438 198.089 33.4029C197.008 34.1779 195.596 34.81 193.966 35.2489C192.336 35.6878 190.533 35.9213 188.701 35.9309C186.101 35.9226 183.474 35.4532 180.944 35.7664C179.965 35.8876 179.05 36.122 178.267 36.4525C177.484 36.783 176.851 37.2012 176.417 37.6764C175.982 38.1516 175.756 38.6718 175.755 39.1987C175.755 39.7256 175.979 40.2459 176.412 40.7215C175.635 40.2761 174.132 40.3815 173.337 40.8183C172.971 41.052 172.7 41.3227 172.542 41.6135C172.383 41.9043 172.341 42.209 172.416 42.5088C172.628 43.4271 173.149 44.3185 173.953 45.1418C170.879 45.0922 167.907 44.5495 165.441 43.587C162.974 42.6245 161.13 41.2886 160.159 39.7596C159.188 38.2307 159.135 36.5824 160.01 35.0374C160.884 33.4925 162.642 32.1253 165.047 31.1205V31.1205Z" fill="#2F2E41"/>
<path d="M449.347 175.717H1.45574C1.29145 175.717 1.13406 175.683 1.01806 175.622C0.902059 175.561 0.836914 175.478 0.836914 175.392C0.836914 175.306 0.902059 175.223 1.01806 175.162C1.13406 175.102 1.29145 175.067 1.45574 175.067H449.347C449.429 175.067 449.51 175.075 449.585 175.091C449.661 175.108 449.73 175.132 449.787 175.162C449.845 175.192 449.891 175.228 449.922 175.267C449.954 175.307 449.97 175.349 449.97 175.392C449.97 175.435 449.954 175.477 449.922 175.517C449.891 175.556 449.845 175.592 449.787 175.622C449.73 175.652 449.661 175.676 449.585 175.693C449.51 175.709 449.429 175.717 449.347 175.717Z" fill="#CCCCCC"/>
<path d="M108.377 4.00378C95.494 3.09151 80.7857 6.73945 77.4466 13.3215C76.6051 12.1512 75.0752 11.1513 73.078 10.4664C71.0807 9.78142 68.7195 9.44682 66.3355 9.51091C63.9515 9.57499 61.6681 10.0345 59.8152 10.8229C57.9622 11.6114 56.6358 12.688 56.0273 13.8973L57.5023 14.4507C85.1106 17.5783 113.69 17.5106 141.243 14.2523C132.281 9.31845 121.26 4.91603 108.377 4.00378Z" fill="#F0F0F0"/>
<path d="M53.1287 22.5717C40.2455 21.6594 25.5372 25.3073 22.1981 31.8893C21.3566 30.719 19.8267 29.7192 17.8294 29.0342C15.8322 28.3493 13.471 28.0147 11.087 28.0788C8.70296 28.1429 6.41954 28.6023 4.56663 29.3908C2.71371 30.1792 1.38722 31.2559 0.778809 32.4651L2.25375 33.0185C29.8621 36.1462 58.441 36.0785 85.9943 32.8202C77.0328 27.8863 66.0119 23.4839 53.1287 22.5717Z" fill="#F0F0F0"/>
</svg>
