<svg width="250" height="250" viewBox="0 0 250 250" fill="none" xmlns="http://www.w3.org/2000/svg">
<rect x="2" y="2" width="246" height="246" stroke="#F3B855" stroke-width="4"/>
<path d="M58.5938 31.25C51.3506 31.2788 44.4123 34.1689 39.2906 39.2906C34.1689 44.4123 31.2788 51.3506 31.25 58.5938C31.25 73.6094 43.5781 85.9375 58.5938 85.9375C73.6094 85.9375 85.9375 73.6094 85.9375 58.5938C85.9375 43.5781 73.6094 31.25 58.5938 31.25ZM93.75 31.25V92.5312C95.5625 94.7578 97.2109 97.125 98.5391 99.7734L106 114.719L109.375 117.234V46.875H118.227L132.68 148.023L125.227 177.789L125 183.594C125 194.367 133.758 203.125 144.531 203.125C149.539 203.125 154.062 201.172 157.516 198.078C161.5 201.188 166.438 203.125 171.875 203.125C177.898 203.125 183.344 200.781 187.5 197.031C191.656 200.781 197.102 203.125 203.125 203.125C205.875 203.125 208.484 202.562 210.938 201.688V218.75H226.562V31.25H93.75ZM58.5938 46.875C65.1562 46.875 70.3125 52.0312 70.3125 58.5938C70.3125 65.1562 65.1562 70.3125 58.5938 70.3125C52.0312 70.3125 46.875 65.1562 46.875 58.5938C46.875 52.0312 52.0312 46.875 58.5938 46.875ZM134 46.875H210.938V179.688C210.938 181.76 210.114 183.747 208.649 185.212C207.184 186.677 205.197 187.5 203.125 187.5C201.053 187.5 199.066 186.677 197.601 185.212C196.136 183.747 195.312 181.76 195.312 179.688H179.688C179.688 181.76 178.864 183.747 177.399 185.212C175.934 186.677 173.947 187.5 171.875 187.5C169.803 187.5 167.816 186.677 166.351 185.212C164.886 183.747 164.062 181.76 164.062 179.688H148.438V183.594C148.438 185.711 146.648 187.5 144.531 187.5C143.5 187.486 142.514 187.07 141.785 186.34C141.055 185.611 140.639 184.625 140.625 183.594V180.648L148.578 148.852L134 46.875ZM54.6875 93.75C37.4453 93.75 23.4375 107.758 23.4375 125V166.016L39.0625 173.828V218.75H54.6875V164.062L39.0625 156.25V125C39.0625 116.391 46.0781 109.375 54.6875 109.375H63.7188C69.6719 109.375 74.9766 112.578 77.6328 117.922L87.6484 137.938L108.336 153.352L117.188 140.625L99.8516 127.688L91.5547 111.086C86.2109 100.43 75.625 93.75 63.7188 93.75H54.6875ZM93.75 160.031V218.75H109.375V171.664L103.68 167.422L93.75 160.031ZM62.5 164.062V218.75H78.125V164.062H62.5Z" fill="#231F20"/>
</svg>
